<svg class="img-fluid" id="outputsvg" xmlns="http://www.w3.org/2000/svg" style="transform: matrix(1, 0, 0, 1, 0, 0); transform-origin: 50% 50%; cursor: move; transition: transform 200ms ease-in-out 0s;" width="1015" height="1015" viewBox="0 0 10150 10150"><g id="lw5DmyPRxB28MJNQacelD5" fill="rgb(255,255,254)" style="transform: none;"><g><path id="po0uDsyu2" d="M4061 8542 c-17 -33 -34 -63 -39 -66 -4 -2 -57 17 -116 45 -60 27 -121 49 -137 49 -26 0 -29 -4 -29 -30 0 -26 29 -62 186 -230 178 -190 189 -200 224 -200 41 0 90 31 152 96 70 75 108 179 108 300 l0 72 -32 5 c-18 4 -90 9 -160 13 l-126 7 -31 -61z"></path><path id="pyZVGTlPc" d="M4536 8365 c-10 -24 -16 -56 -14 -71 3 -25 43 -42 848 -364 465 -185 1036 -413 1270 -505 234 -92 588 -233 787 -312 249 -98 374 -143 401 -143 38 0 40 2 52 43 6 24 10 56 8 71 -3 27 -20 35 -413 192 -225 91 -414 169 -419 175 -6 5 -18 9 -27 9 -22 0 -370 138 -389 154 -8 7 -31 16 -50 20 -38 7 -389 144 -404 157 -6 5 -16 9 -24 9 -8 0 -30 7 -50 16 -131 56 -141 60 -220 90 -40 15 -75 31 -78 36 -3 4 -12 8 -21 8 -13 0 -478 183 -598 235 -16 7 -102 41 -190 75 -88 34 -210 82 -272 106 -61 24 -127 44 -146 44 -31 0 -36 -4 -51 -45z"></path><path id="pdBWk7iqF" d="M4412 8133 c-14 -22 -22 -47 -20 -66 3 -28 10 -32 198 -107 865 -343 1095 -434 1380 -545 719 -280 820 -319 935 -365 473 -188 746 -290 776 -290 31 0 38 5 52 35 9 20 17 48 17 64 0 31 -3 33 -155 91 -44 18 -84 36 -89 41 -6 5 -16 9 -24 9 -7 0 -41 11 -75 24 -34 14 -208 82 -387 151 -179 70 -332 133 -340 140 -8 7 -31 15 -51 18 -19 3 -55 14 -80 25 -24 11 -93 39 -154 63 -60 23 -123 53 -138 66 -18 14 -42 23 -63 23 -19 0 -53 8 -77 19 -23 10 -86 35 -139 55 -54 21 -100 42 -104 47 -3 5 -13 9 -23 9 -22 0 -251 89 -271 105 -8 7 -39 18 -67 25 -29 6 -64 21 -77 31 -13 10 -33 19 -44 19 -25 0 -161 56 -182 75 -9 8 -25 15 -36 15 -10 0 -31 6 -45 14 -14 7 -39 16 -55 20 -16 4 -42 13 -59 21 -16 7 -68 27 -115 45 -47 18 -107 43 -135 55 -139 60 -266 105 -296 105 -28 -1 -38 -7 -57 -37z"></path><path id="pnCjnQJgS" d="M8070 7113 c0 -5 -7 -38 -15 -75 -19 -90 -63 -180 -130 -267 -67 -87 -74 -131 -25 -151 16 -7 45 -10 65 -8 29 3 35 1 35 -14 0 -15 9 -18 64 -18 62 0 65 1 115 46 34 31 63 70 88 122 35 69 38 84 41 174 5 122 -7 148 -68 148 -38 0 -39 -1 -43 -37 -3 -31 -4 -28 -5 15 -2 46 -5 54 -28 62 -30 12 -94 13 -94 3z"></path><path id="p9Bgcpn9c" d="M3142 5917 c-35 -37 -72 -131 -84 -215 -15 -102 0 -229 37 -310 58 -126 173 -232 252 -232 21 0 118 23 216 52 l177 52 0 33 c0 33 0 33 -49 33 -28 0 -100 -15 -165 -35 -64 -19 -120 -35 -125 -35 -22 0 -110 94 -139 148 l-32 60 72 25 c40 14 83 29 96 32 20 6 23 12 20 53 l-3 47 -49 3 c-33 2 -69 -4 -107 -18 -32 -12 -63 -19 -68 -15 -19 11 -12 155 10 215 12 30 23 72 26 93 5 37 5 37 -29 37 -23 0 -42 -8 -56 -23z"></path><path id="pxzewAbJ6" d="M4245 5910 c-55 -16 -179 -49 -275 -74 -96 -26 -224 -61 -283 -79 l-109 -32 5 -53 c7 -64 20 -82 59 -82 54 0 559 171 701 237 94 45 97 47 97 80 0 33 0 33 -47 32 -27 -1 -93 -14 -148 -29z"></path><path id="p14vUl2ebZ" d="M3884 4457 c-56 -29 -109 -59 -118 -66 -14 -12 -16 -62 -16 -462 l0 -449 38 1 c34 0 43 8 115 90 63 74 77 96 77 124 0 26 -5 34 -20 37 -20 3 -20 4 5 40 31 46 34 98 5 98 -11 0 -20 4 -20 9 0 9 74 80 138 130 34 28 42 40 42 68 0 31 -2 33 -34 33 -22 0 -52 -12 -86 -35 -29 -20 -55 -34 -57 -32 -2 3 19 25 47 50 40 36 50 51 50 76 0 28 -3 31 -33 31 -18 0 -42 -7 -53 -15 -10 -8 -22 -15 -26 -15 -5 0 -8 37 -8 82 l0 83 60 56 c49 45 60 62 60 87 0 29 -3 32 -32 32 -20 -1 -75 -22 -134 -53z"></path><path id="paAvZVphs" d="M6520 4478 c0 -26 12 -43 70 -97 l70 -66 0 -73 0 -72 -35 0 c-33 0 -35 -2 -35 -32 0 -22 10 -42 33 -67 l32 -34 -36 21 c-20 12 -50 22 -68 22 -28 0 -31 -3 -31 -32 0 -26 11 -44 57 -90 l57 -58 -32 0 c-29 0 -32 -3 -32 -31 0 -23 11 -44 40 -75 22 -24 40 -48 40 -54 0 -5 -13 -10 -30 -10 -27 0 -30 -3 -30 -34 0 -28 13 -47 86 -125 76 -80 90 -91 120 -91 l34 0 -2 458 -3 457 -115 57 c-78 39 -127 58 -152 58 -36 0 -38 -2 -38 -32z"></path><path id="pltCytch5" d="M5155 3965 c-27 -12 -189 -87 -360 -165 -170 -78 -481 -221 -690 -317 -390 -180 -920 -420 -1080 -490 l-90 -39 0 -39 c0 -37 2 -40 30 -43 86 -8 1316 456 2185 825 l115 49 295 -123 c659 -276 1186 -479 1606 -619 222 -74 293 -94 337 -94 l57 0 0 35 c0 19 -4 35 -10 35 -5 0 -74 32 -153 70 -79 39 -149 70 -155 70 -6 0 -27 14 -45 30 -19 17 -46 30 -59 30 -14 0 -85 28 -159 61 -74 34 -168 76 -209 94 -41 18 -104 46 -140 63 -36 16 -131 60 -212 96 -81 36 -156 70 -165 76 -10 5 -110 51 -223 101 -350 155 -484 216 -515 233 -164 87 -266 104 -360 61z"></path><path id="pUKfd5nw5" d="M5141 2816 c-57 -20 -81 -58 -81 -125 0 -48 4 -61 24 -80 72 -68 284 -68 356 -1 26 25 30 35 30 85 0 71 -11 92 -63 116 -50 22 -210 25 -266 5z"></path></g></g><g id="l6dJznDMjy7hYMBzk1VGM7K" fill="rgb(161,167,247)" style="transform: none;"><g><path id="pRUaBcbPx" d="M4845 10139 c-1991 -82 -3763 -1332 -4502 -3174 -167 -415 -269 -805 -328 -1257 -21 -160 -21 -1096 0 -1256 183 -1388 893 -2601 2010 -3433 1414 -1052 3287 -1295 4930 -637 1856 743 3107 2510 3184 4496 98 2553 -1710 4769 -4242 5197 -246 41 -422 57 -772 69 -55 1 -181 0 -280 -5z m-804 -1479 l367 -19 303 -120 c167 -66 321 -123 343 -127 22 -4 69 -1 108 6 57 11 105 11 261 1 190 -12 223 -16 407 -46 649 -108 1296 -441 1740 -895 95 -97 54 -76 509 -261 107 -43 213 -90 237 -104 74 -43 142 -144 164 -240 31 -139 -97 -323 -254 -366 -77 -21 -226 0 -256 36 -7 8 -19 15 -27 15 -8 0 -44 14 -80 30 -35 17 -68 30 -72 30 -7 0 -174 67 -246 99 -110 48 -225 66 -225 35 0 -11 -6 -14 -22 -9 -26 8 -85 32 -110 46 -10 5 -26 9 -35 9 -27 0 -85 23 -118 46 -17 11 -57 26 -90 33 -55 11 -165 47 -380 121 -153 53 -175 67 -175 115 0 29 -4 34 -47 50 -27 10 -57 26 -69 36 -11 11 -30 19 -42 19 -12 0 -41 9 -65 19 -52 24 -173 71 -181 71 -4 0 -25 9 -49 19 -23 11 -58 24 -78 30 -20 6 -51 23 -69 36 -19 14 -45 25 -59 25 -34 1 -119 31 -151 53 -13 9 -34 17 -45 17 -11 0 -49 9 -83 20 -71 22 -146 26 -189 9 -15 -6 -462 -159 -993 -340 -531 -181 -987 -340 -1015 -354 -89 -44 -125 -118 -125 -259 0 -75 4 -100 23 -136 27 -55 77 -90 127 -90 20 0 131 30 246 66 115 36 236 74 269 84 33 10 161 50 285 90 124 39 266 84 315 100 50 15 196 63 325 105 531 174 596 195 609 195 7 0 245 -75 529 -166 604 -194 1267 -404 1402 -445 116 -35 140 -47 153 -78 10 -20 7 -27 -21 -52 -25 -23 -42 -29 -77 -29 -43 0 -45 -1 -45 -29 0 -17 -10 -42 -22 -56 l-23 -26 -150 49 c-168 56 -777 254 -1015 331 -85 27 -184 60 -220 71 -72 24 -188 36 -245 26 -52 -10 -110 -66 -125 -121 -8 -27 -11 -79 -8 -133 3 -73 9 -96 30 -134 54 -91 120 -133 285 -183 48 -14 171 -53 273 -85 102 -32 217 -68 255 -80 87 -26 544 -172 646 -205 42 -14 116 -36 164 -50 125 -34 155 -67 94 -104 -24 -15 -60 -21 -153 -26 -118 -7 -128 -6 -287 30 -90 21 -222 50 -294 65 -71 15 -159 35 -195 43 -146 35 -290 67 -365 81 -44 9 -100 20 -125 26 -25 5 -106 21 -180 35 -177 32 -227 47 -286 81 -78 45 -152 102 -171 132 -9 15 -28 41 -42 57 -38 47 -78 147 -92 229 -22 130 18 258 112 363 39 42 49 60 49 88 0 32 -3 35 -28 35 -47 0 -304 -87 -367 -125 -172 -102 -246 -273 -217 -507 23 -184 128 -335 294 -418 98 -49 128 -50 265 -11 l102 29 188 -47 c103 -27 429 -109 723 -184 995 -252 1081 -276 1110 -302 25 -23 25 -47 0 -70 -15 -13 -23 -15 -33 -6 -8 6 -56 17 -108 25 -52 7 -119 21 -149 30 -30 9 -107 28 -170 41 -63 14 -160 36 -215 50 -55 14 -136 35 -180 46 -44 11 -98 28 -120 38 -22 10 -83 26 -135 35 -99 17 -184 37 -235 54 -16 6 -102 27 -190 47 -88 20 -173 42 -190 49 -43 19 -163 36 -251 36 -53 0 -111 -9 -192 -31 -522 -137 -943 -251 -1137 -305 -126 -36 -255 -72 -285 -80 -271 -75 -328 -103 -373 -188 -19 -35 -22 -57 -22 -156 0 -101 3 -121 24 -163 50 -103 122 -111 386 -43 94 24 283 74 420 111 332 88 307 81 655 175 470 126 483 130 515 130 17 0 161 -33 320 -74 160 -40 452 -115 650 -165 805 -205 991 -254 1003 -264 29 -23 32 -44 11 -71 -21 -26 -33 -31 -186 -67 l-93 -21 0 -453 0 -454 23 -7 c12 -4 78 -32 147 -64 69 -31 218 -98 333 -150 114 -51 207 -98 207 -104 -1 -20 -64 -95 -115 -137 -133 -110 -360 -178 -690 -209 -136 -12 -718 -12 -915 1 -80 5 -200 12 -266 15 l-122 7 -6 -44 c-16 -123 -17 -139 -10 -139 5 0 72 -7 149 -15 225 -24 611 -37 855 -30 794 23 1124 135 1300 441 l30 51 0 307 0 306 -50 48 c-36 35 -50 56 -50 76 0 27 28 86 41 86 3 0 18 11 33 25 24 22 26 30 26 104 0 79 0 80 -32 99 -48 30 -85 71 -103 116 -26 61 -82 784 -65 839 24 81 152 177 235 177 80 0 200 -86 231 -166 16 -41 16 -60 5 -222 -23 -325 -49 -597 -60 -625 -16 -43 -51 -84 -93 -112 l-38 -25 0 -90 c0 -89 0 -90 29 -105 40 -20 75 -78 67 -111 -4 -14 -27 -45 -52 -69 l-44 -43 2 -333 3 -332 80 -33 c44 -19 88 -43 99 -53 23 -24 16 -62 -17 -84 -13 -8 -142 -56 -287 -107 -258 -90 -407 -141 -1115 -385 -187 -64 -385 -132 -440 -152 -55 -19 -215 -74 -355 -123 -140 -48 -333 -116 -429 -149 -221 -77 -240 -78 -423 -15 -73 25 -146 52 -163 59 -16 6 -46 17 -65 23 -67 21 -503 172 -534 186 -17 7 -60 22 -96 33 -36 12 -162 55 -280 96 -118 41 -294 103 -390 136 -96 34 -184 65 -195 70 -11 6 -84 31 -162 56 -79 26 -145 51 -148 56 -4 5 -17 9 -30 9 -13 0 -27 5 -30 10 -3 6 -13 10 -22 10 -8 0 -29 6 -46 13 -18 8 -106 38 -197 67 -91 29 -176 59 -190 66 -14 6 -44 18 -67 24 -23 7 -52 24 -65 37 -21 22 -21 26 -8 51 17 30 -19 13 620 286 250 107 483 207 518 222 l62 27 0 442 0 442 -22 11 c-13 6 -46 12 -75 15 -29 2 -77 16 -110 32 -32 16 -73 36 -91 44 -48 23 -115 98 -151 169 -83 165 -58 331 76 489 44 52 54 70 51 95 -3 27 -10 33 -65 55 -166 66 -290 297 -255 475 29 145 120 266 241 320 36 16 73 33 81 37 8 5 16 24 18 44 l3 37 -77 35 c-85 39 -173 106 -215 163 -33 46 -66 134 -75 200 -14 109 42 246 146 352 72 75 108 96 249 146 421 152 920 328 1419 499 l282 98 0 36 0 36 -108 44 c-59 24 -119 52 -134 63 -14 10 -32 18 -40 18 -15 0 -172 58 -238 88 -25 11 -61 25 -81 31 -20 7 -101 38 -180 70 l-144 58 -75 84 c-41 47 -165 185 -275 308 -110 122 -206 231 -213 241 -13 18 -10 18 60 14 40 -3 238 -13 439 -24z m-42 -770 c6 0 11 -4 11 -10 0 -5 -6 -10 -12 -10 -18 0 -170 -60 -186 -73 -8 -6 -12 -25 -10 -46 3 -35 4 -36 52 -39 36 -2 76 7 166 39 l119 41 70 -27 c55 -22 69 -31 60 -41 -12 -14 -13 -15 -289 -113 -107 -38 -226 -81 -263 -95 -63 -24 -69 -25 -91 -10 -39 25 -41 46 -7 76 22 19 31 37 31 58 0 28 -3 30 -36 30 -52 0 -130 -41 -241 -126 -185 -142 -376 -330 -505 -499 -164 -214 -310 -519 -388 -814 -26 -97 -76 -161 -125 -161 -42 0 -105 67 -105 111 2 119 132 475 257 699 167 301 467 631 768 846 160 114 246 166 430 258 l130 65 77 -79 c42 -44 81 -80 87 -80z m4061 -1540 l89 0 16 -57 c48 -163 75 -405 75 -668 0 -148 -12 -182 -75 -212 -33 -16 -36 -16 -79 7 -73 37 -77 54 -75 307 2 165 -2 242 -15 318 -15 91 -57 269 -72 309 -5 14 -2 15 21 6 14 -5 66 -10 115 -10z m-1105 -360 c13 -5 14 -9 5 -9 -8 0 -24 4 -35 9 -13 5 -14 9 -5 9 8 0 24 -4 35 -9z m168 -47 c4 -2 7 -8 7 -13 0 -10 -47 7 -65 23 -9 8 40 0 58 -10z m-4786 -110 c63 -30 73 -59 73 -216 l0 -139 -33 -33 c-19 -19 -45 -37 -59 -40 -33 -8 -86 22 -115 65 -21 30 -23 45 -23 152 0 83 4 127 14 146 22 41 67 78 99 81 5 1 25 -7 44 -16z m4693 -48 c71 -18 105 -33 96 -42 -3 -4 -16 -2 -29 4 -12 6 -55 20 -94 32 -40 12 -73 24 -73 27 0 3 8 3 18 0 9 -3 46 -12 82 -21z m-4593 -675 c38 -23 51 -45 93 -170 46 -135 96 -237 184 -375 42 -66 76 -128 76 -138 0 -11 -18 -37 -39 -59 -33 -33 -44 -38 -68 -32 -73 17 -192 190 -287 417 -43 103 -52 128 -81 231 -16 57 -6 88 41 125 33 26 41 26 81 1z m4482 -186 c9 -8 -45 -2 -64 6 -14 7 -8 8 20 3 22 -3 42 -7 44 -9z m135 -32 c38 -10 71 -23 73 -29 3 -8 -12 -6 -44 4 -26 8 -66 20 -88 25 -22 6 -44 15 -50 20 -6 6 -1 7 15 3 14 -3 56 -14 94 -23z m-3407 -104 c-2 -13 -4 -3 -4 22 0 25 2 35 4 23 2 -13 2 -33 0 -45z m3462 -100 c49 -18 13 -17 -50 2 -57 18 -59 19 -19 14 25 -4 56 -11 69 -16z"></path></g></g><g id="l4jYnvgrTtVGAdbv2Bbu1fR" fill="rgb(81,160,44)" style="transform: none;"><g><path id="peUhyOXo9" d="M5118 8428 c-39 -10 -48 -27 -25 -46 6 -5 68 -31 137 -57 69 -26 150 -58 180 -70 30 -13 100 -40 155 -60 55 -20 132 -49 170 -64 39 -16 117 -45 175 -66 58 -21 143 -54 190 -73 47 -18 126 -49 175 -67 92 -33 261 -99 350 -136 28 -12 129 -52 225 -91 96 -38 190 -76 208 -84 19 -8 148 -59 288 -114 174 -69 266 -100 294 -100 l41 0 -58 65 c-151 171 -441 395 -693 536 -338 190 -707 323 -1065 383 -286 49 -649 70 -747 44z"></path><path id="pwyaYhync" d="M3750 8053 c-226 -116 -283 -148 -374 -208 -176 -116 -244 -169 -405 -314 -169 -153 -386 -426 -494 -621 -140 -251 -256 -581 -257 -729 0 -60 2 -65 38 -101 46 -46 93 -58 144 -37 52 22 83 71 113 177 81 295 221 584 383 795 129 169 320 357 505 499 113 86 273 172 187 100 -58 -49 -27 -41 173 44 76 32 107 50 107 63 0 9 -10 19 -22 23 -20 5 -21 7 -8 20 13 13 101 49 213 87 20 7 37 16 37 21 0 4 -21 21 -47 39 -27 18 -81 67 -121 110 -41 44 -77 78 -80 77 -4 0 -45 -21 -92 -45z"></path><path id="pc5hgFEFv" d="M5285 6746 c-132 -35 -164 -48 -179 -71 -18 -28 -17 -29 18 -15 14 5 26 7 26 5 0 -3 -22 -29 -48 -58 -81 -90 -122 -197 -122 -322 1 -121 43 -258 101 -330 14 -16 33 -42 42 -57 19 -30 93 -87 171 -132 59 -34 109 -49 286 -81 74 -14 155 -30 180 -35 25 -6 81 -17 125 -26 76 -14 200 -42 385 -85 47 -11 137 -31 200 -45 197 -41 254 -54 270 -60 8 -4 26 -8 38 -10 13 -1 54 -10 91 -18 57 -13 86 -13 206 -3 77 7 150 19 163 26 44 24 51 91 12 126 -10 9 -57 27 -105 40 -48 14 -122 36 -164 50 -102 33 -559 179 -646 205 -38 12 -153 48 -255 80 -102 32 -225 71 -273 85 -120 36 -172 60 -219 103 -115 104 -133 280 -37 366 59 54 126 59 254 17 33 -10 182 -58 330 -106 149 -48 362 -118 475 -155 591 -193 619 -201 639 -190 29 15 51 51 51 82 0 18 5 28 15 28 8 0 15 6 15 13 -1 13 -129 77 -155 77 -32 0 -423 131 -435 145 -7 8 -29 15 -50 15 -23 0 -61 12 -95 30 -31 17 -67 30 -80 30 -20 0 -427 128 -765 241 -120 40 -131 42 -270 45 -98 2 -161 -1 -195 -10z"></path><path id="pQmohHvNQ" d="M4355 6440 c-60 -21 -189 -64 -285 -95 -96 -32 -202 -70 -235 -85 -207 -94 -304 -290 -267 -540 6 -37 11 -46 29 -48 16 -2 21 1 18 10 -6 15 19 23 330 108 396 107 456 122 461 118 9 -9 -194 -97 -336 -146 -372 -127 -424 -142 -442 -125 -17 15 -18 14 -18 -22 0 -75 110 -203 218 -253 94 -43 148 -41 352 16 96 27 271 75 388 108 l212 58 0 36 c-1 32 -5 37 -51 59 -68 34 -184 157 -231 247 -63 120 -82 244 -54 351 17 62 53 137 78 160 10 9 18 30 18 50 0 32 -1 33 -37 32 -21 -1 -87 -19 -148 -39z"></path><path id="pLO9DtGdp" d="M7870 6414 c0 -4 16 -62 35 -129 35 -122 75 -329 75 -388 0 -78 27 -98 70 -53 30 33 70 41 115 22 21 -9 51 -16 68 -16 l30 0 -6 108 c-6 109 -32 263 -62 365 l-16 57 -84 0 c-74 0 -153 13 -207 35 -10 4 -18 4 -18 -1z"></path><path id="p1C1byM1nT" d="M3405 6129 c-44 -15 -99 -28 -122 -28 -43 -1 -57 -14 -27 -25 13 -5 14 -9 4 -21 -7 -8 -18 -15 -24 -15 -6 0 -38 -13 -71 -28 -276 -131 -330 -541 -102 -774 44 -44 94 -74 171 -101 15 -6 16 -10 6 -22 -10 -13 -8 -15 14 -15 37 0 126 51 126 73 0 13 8 17 33 17 17 0 81 16 140 35 59 19 123 37 142 41 32 6 35 9 35 40 0 33 -1 34 -39 34 -22 0 -44 6 -51 15 -7 8 -18 15 -25 15 -19 0 -148 140 -168 183 -10 20 -21 37 -25 37 -11 0 -37 147 -34 190 5 83 57 194 124 267 29 33 38 51 38 78 0 33 -2 35 -32 34 -18 -1 -69 -14 -113 -30z m-228 -266 c-19 -42 -22 -65 -22 -180 0 -72 3 -135 7 -138 4 -4 49 7 101 25 92 33 127 34 127 7 0 -8 -39 -26 -102 -47 -57 -19 -105 -35 -107 -37 -2 -2 15 -41 38 -87 31 -64 56 -97 99 -136 67 -60 62 -60 237 -6 65 20 128 36 140 34 11 -2 -62 -27 -163 -57 l-183 -54 -36 19 c-60 31 -140 120 -178 198 -64 132 -68 277 -9 406 21 45 59 100 70 100 2 0 -7 -21 -19 -47z"></path></g></g><g id="l4136ar36LntDkptaOMnxnO" fill="rgb(21,107,130)" style="transform: none;"><g><path id="pdACClW3Y" d="M3995 7784 c-172 -57 -369 -141 -407 -172 -60 -51 -21 -152 58 -152 19 0 64 12 101 26 38 14 163 59 278 100 256 91 270 97 291 129 15 22 15 28 3 40 -15 14 -156 75 -174 75 -5 0 -73 -21 -150 -46z"></path><path id="p19M0Gffb4" d="M2326 5139 c-66 -52 -69 -109 -18 -264 60 -178 131 -326 217 -449 68 -97 93 -116 158 -123 56 -6 57 -5 97 34 36 36 40 46 40 90 0 43 -8 61 -76 168 -88 138 -138 240 -184 375 -18 52 -39 108 -47 123 -32 63 -133 88 -187 46z"></path><path id="phdsMUAi3" d="M6650 4230 c0 -103 1 -110 20 -110 19 0 20 7 20 110 0 103 -1 110 -20 110 -19 0 -20 -7 -20 -110z"></path></g></g><g id="l6KBb0ifXyJirWYEylDuVCi" fill="rgb(1,56,72)" style="transform: none;"><g><path id="pyi0ApDgJ" d="M3487 8714 c-19 -19 4 -52 144 -210 84 -93 200 -223 258 -289 197 -222 176 -205 362 -279 91 -36 170 -66 176 -66 5 0 29 -10 54 -21 57 -28 220 -89 237 -89 8 0 26 -8 40 -18 15 -11 75 -39 134 -63 59 -24 108 -47 108 -50 0 -4 -127 -50 -282 -104 -499 -171 -998 -347 -1419 -499 -141 -50 -177 -71 -249 -146 -72 -74 -122 -163 -141 -250 -24 -113 7 -275 70 -362 64 -88 251 -201 331 -200 19 0 74 13 122 29 92 31 100 26 44 -26 -56 -52 -108 -171 -121 -273 -8 -67 15 -180 52 -256 28 -58 155 -202 178 -202 7 0 18 -7 25 -15 7 -9 29 -15 51 -15 76 0 45 -18 -114 -64 -213 -62 -272 -91 -341 -169 -117 -131 -160 -285 -125 -449 24 -111 114 -243 191 -279 18 -8 59 -28 91 -44 33 -16 81 -30 110 -32 29 -3 62 -9 75 -15 l22 -11 0 -412 0 -412 -62 -27 c-100 -44 -882 -379 -1006 -431 -63 -26 -119 -56 -127 -68 -8 -12 -15 -40 -15 -62 0 -49 24 -76 85 -95 22 -7 51 -18 65 -25 14 -6 99 -36 190 -65 91 -29 179 -59 197 -67 17 -7 38 -13 46 -13 9 0 19 -5 22 -10 3 -6 17 -10 30 -10 13 0 26 -4 30 -9 3 -5 69 -30 148 -56 78 -25 151 -50 162 -56 11 -5 99 -36 195 -70 96 -33 272 -95 390 -136 118 -41 244 -84 280 -96 36 -11 79 -26 96 -33 31 -14 467 -165 534 -186 19 -6 49 -17 65 -23 17 -7 90 -34 163 -59 119 -41 143 -46 221 -46 81 0 100 4 262 61 96 33 289 101 429 149 140 49 300 104 355 123 55 20 253 88 440 152 1092 376 1341 463 1383 482 36 17 62 58 62 97 0 40 -39 74 -125 110 l-80 33 -3 306 -2 305 29 21 c93 67 93 208 0 256 -27 15 -29 19 -29 75 0 58 1 60 39 86 76 50 102 111 115 269 28 335 46 592 46 650 0 88 -22 137 -84 192 -110 97 -271 98 -380 2 -59 -53 -86 -109 -86 -185 0 -32 13 -221 29 -420 21 -256 34 -372 46 -400 18 -45 56 -86 103 -116 29 -18 32 -24 32 -69 0 -35 -5 -54 -19 -66 -10 -10 -31 -29 -45 -41 -14 -13 -31 -42 -37 -65 -16 -60 1 -107 56 -155 l45 -40 0 -277 0 -278 -30 -51 c-124 -216 -321 -329 -680 -390 -255 -44 -676 -63 -1034 -47 -217 10 -525 36 -534 46 -2 2 1 12 7 23 6 12 11 37 11 58 l0 37 93 -7 c293 -21 417 -25 742 -25 377 -1 503 6 697 39 287 49 463 140 564 291 24 37 44 71 44 75 0 5 -53 32 -118 61 -64 29 -202 91 -307 138 -104 48 -218 98 -252 112 l-63 27 0 422 0 422 93 21 c153 36 165 41 186 68 28 34 27 85 -1 117 -24 26 19 14 -1008 276 -195 49 -500 127 -677 172 l-323 81 -127 -31 c-71 -18 -245 -64 -388 -102 -1015 -274 -1269 -340 -1315 -340 -51 0 -94 31 -121 87 -33 67 -34 198 -2 259 45 85 101 113 373 188 30 8 159 44 285 80 194 54 615 168 1137 305 64 17 137 31 162 31 62 0 184 -20 221 -36 17 -7 102 -29 190 -49 88 -20 174 -41 190 -47 51 -17 136 -37 235 -54 52 -9 113 -25 135 -35 22 -10 76 -27 120 -38 44 -11 125 -32 180 -46 55 -14 152 -36 215 -50 63 -13 140 -32 170 -41 30 -9 98 -23 150 -30 52 -8 99 -19 104 -24 17 -17 82 -12 100 9 29 32 31 84 4 115 -31 37 -59 44 -1133 317 -280 71 -598 152 -706 179 -108 28 -207 50 -219 50 -13 0 -74 -14 -136 -32 l-114 -31 -84 41 c-257 128 -374 436 -259 681 33 70 120 157 198 198 57 30 387 137 504 163 97 23 237 8 381 -40 390 -128 745 -240 765 -240 13 0 49 -13 80 -30 34 -18 72 -30 95 -30 21 0 43 -7 50 -15 12 -15 404 -145 436 -145 11 0 44 -13 74 -30 75 -40 154 -42 198 -5 38 32 48 74 28 112 -18 36 -37 46 -156 82 -132 40 -785 247 -1418 450 -293 94 -537 171 -544 171 -9 0 -602 -191 -838 -270 -53 -17 -241 -77 -600 -190 -91 -29 -219 -70 -285 -91 -315 -100 -321 -101 -352 -86 -61 32 -93 96 -93 185 0 107 44 187 125 227 41 20 1911 664 2026 698 28 8 49 6 106 -11 39 -12 80 -22 90 -22 10 0 30 -8 43 -17 32 -22 117 -52 151 -53 14 0 40 -11 59 -25 18 -13 49 -30 69 -36 20 -6 55 -19 78 -30 24 -10 45 -19 49 -19 8 0 129 -47 181 -71 24 -10 53 -19 65 -19 12 0 31 -8 42 -19 12 -10 44 -27 71 -37 48 -18 49 -19 19 -22 -17 -2 -65 6 -107 17 -94 26 -94 26 -71 0 24 -27 85 -54 157 -69 31 -6 59 -16 63 -21 10 -16 81 -44 359 -137 66 -22 147 -46 180 -53 33 -7 73 -22 90 -33 33 -23 91 -46 118 -46 9 0 25 -4 35 -9 53 -28 102 -45 145 -49 39 -4 47 -2 47 12 0 9 5 16 11 16 12 0 118 -35 154 -51 72 -32 239 -99 246 -99 4 0 37 -13 72 -30 36 -16 72 -30 80 -30 8 0 20 -7 27 -15 32 -39 232 -63 316 -37 69 20 156 84 196 143 96 139 84 319 -28 456 -47 58 -87 79 -315 172 -306 124 -392 161 -427 182 -18 10 -37 19 -43 19 -9 0 -481 184 -551 214 -18 8 -112 46 -208 84 -96 39 -197 79 -225 91 -89 37 -258 103 -350 136 -49 18 -128 49 -175 67 -47 19 -132 52 -190 73 -58 21 -136 50 -175 66 -38 15 -115 44 -170 64 -55 20 -125 47 -155 60 -30 12 -111 44 -180 70 -69 26 -129 51 -135 55 -5 4 -30 12 -55 17 -25 6 -177 63 -339 127 l-293 117 -362 19 c-198 10 -411 22 -471 25 -61 4 -113 3 -118 -1z m851 -160 c42 -5 42 -5 42 -47 0 -92 -45 -204 -108 -271 -38 -39 -109 -96 -122 -96 -4 0 -91 90 -193 199 l-186 199 119 -54 c66 -30 126 -54 133 -54 19 0 40 26 71 88 l27 54 87 -6 c48 -4 106 -9 130 -12z m365 -218 c62 -24 184 -72 272 -106 88 -34 174 -68 190 -75 120 -52 585 -235 598 -235 9 0 18 -4 21 -8 3 -5 38 -21 78 -36 79 -30 89 -34 220 -90 20 -9 42 -16 50 -16 8 0 18 -4 23 -9 16 -13 367 -150 405 -157 19 -4 42 -13 50 -20 18 -15 366 -154 387 -154 7 0 24 -6 36 -14 12 -8 200 -85 417 -171 217 -87 398 -161 402 -164 10 -8 -13 -81 -24 -81 -5 0 -172 65 -371 143 -199 79 -553 220 -787 312 -234 92 -796 316 -1250 498 -454 181 -835 333 -847 338 -21 8 -21 9 -6 49 9 22 18 40 20 40 3 0 55 -20 116 -44z m-124 -238 c58 -23 129 -51 156 -63 28 -12 88 -37 135 -55 47 -18 99 -38 115 -45 17 -8 43 -17 59 -21 16 -4 41 -13 55 -20 14 -8 35 -14 45 -14 11 0 27 -7 36 -15 21 -19 157 -75 182 -75 11 0 31 -9 44 -19 13 -10 48 -25 77 -31 28 -7 59 -18 67 -25 20 -16 249 -105 271 -105 10 0 20 -4 23 -9 4 -5 50 -26 104 -47 53 -20 116 -45 139 -55 24 -11 58 -19 77 -19 21 0 45 -9 63 -23 15 -13 78 -43 138 -66 61 -24 130 -52 154 -63 25 -11 61 -22 80 -25 20 -3 43 -11 51 -18 8 -7 161 -70 340 -140 179 -69 353 -137 387 -151 34 -13 68 -24 75 -24 8 0 18 -4 24 -9 5 -5 45 -23 89 -41 44 -17 97 -38 117 -47 l37 -16 -16 -31 c-8 -17 -17 -33 -19 -34 -2 -4 -427 160 -749 288 -66 26 -230 91 -365 143 -789 307 -1147 448 -1320 517 -151 61 -638 254 -807 321 l-23 8 23 35 c12 19 24 35 26 36 2 0 52 -19 110 -42z m3555 -1018 c23 -8 26 -15 26 -57 0 -54 -35 -161 -74 -228 -15 -25 -50 -70 -79 -101 -50 -54 -54 -56 -77 -44 -14 7 -26 14 -28 15 -2 2 22 35 52 75 68 88 112 178 131 268 8 37 15 70 15 75 0 9 4 9 34 -3z m132 -65 c12 -19 15 -42 12 -93 -7 -138 -128 -312 -215 -312 l-36 0 27 33 c98 119 176 282 176 368 0 36 14 37 36 4z m-3773 -587 c-57 -62 -93 -175 -93 -293 0 -103 21 -191 68 -279 47 -90 163 -213 231 -247 28 -13 50 -26 51 -29 0 -3 -96 -32 -212 -64 -117 -33 -292 -81 -388 -108 -119 -33 -186 -47 -210 -44 -64 10 -155 63 -212 125 -227 245 -161 606 137 741 33 15 139 53 235 85 96 31 225 74 285 95 134 45 133 45 108 18z m-531 -2006 l-62 -57 0 -127 c0 -70 4 -129 9 -132 4 -3 23 6 42 20 64 48 74 47 21 -2 -41 -38 -56 -59 -63 -92 -16 -75 3 -80 82 -21 30 22 68 47 84 55 l30 15 -25 -21 c-128 -109 -160 -143 -170 -182 -14 -49 -1 -70 30 -51 15 10 13 3 -10 -35 -33 -54 -50 -122 -29 -122 7 0 21 8 32 18 17 14 19 14 11 1 -14 -25 -148 -177 -156 -178 -5 -1 -8 187 -8 418 0 372 2 420 16 432 15 12 213 118 223 119 2 0 -24 -26 -57 -58z m2718 0 l115 -57 1 -429 2 -428 -50 48 c-45 45 -150 165 -118 137 8 -7 24 -13 37 -13 20 0 23 5 23 36 0 43 -12 67 -59 119 -20 22 -27 32 -15 22 11 -9 33 -17 48 -17 26 0 27 2 20 38 -5 27 -23 55 -73 106 -56 59 -61 66 -30 48 20 -12 50 -22 68 -22 28 0 31 3 31 32 0 22 -10 42 -32 66 -25 26 -27 32 -11 23 46 -23 48 -19 47 106 l-2 118 -68 62 c-38 35 -64 63 -59 63 6 0 62 -26 125 -58z m-1308 -497 c46 -20 97 -43 113 -51 31 -17 165 -78 515 -233 113 -50 213 -96 223 -101 9 -6 84 -40 165 -76 81 -36 176 -80 212 -96 36 -17 99 -45 140 -63 41 -18 135 -60 209 -94 74 -33 145 -61 159 -61 13 0 40 -13 59 -30 18 -16 42 -30 51 -30 10 0 26 -6 37 -14 11 -7 79 -41 150 -75 189 -89 125 -79 -209 33 -425 142 -930 337 -1595 615 l-334 140 -274 -115 c-757 -316 -1219 -494 -1825 -705 -204 -70 -274 -78 -133 -14 42 19 78 35 80 35 6 0 606 272 1020 463 209 96 520 239 690 317 171 78 333 153 360 165 68 32 91 30 187 -10z m8 -1147 c105 -53 69 -152 -64 -180 -105 -22 -226 27 -226 92 0 36 37 80 81 96 58 21 159 17 209 -8z"></path><path id="p11nafvhNe" d="M3437 6730 c-75 -66 -98 -167 -53 -235 13 -20 25 -25 56 -25 l39 0 -21 37 c-33 55 -31 153 4 216 15 26 25 47 24 47 -2 0 -24 -18 -49 -40z"></path><path id="p1CS6g0oCt" d="M6748 6707 c14 -15 62 -36 125 -57 56 -18 130 -45 163 -61 34 -15 74 -31 90 -35 16 -3 58 -15 93 -25 35 -10 76 -19 92 -19 26 0 29 3 29 34 l0 33 -92 26 c-125 35 -493 127 -509 127 -7 0 -4 -9 9 -23z"></path><path id="pT8v36a6E" d="M5930 6285 c14 -15 40 -28 62 -32 21 -3 41 -10 44 -14 3 -5 17 -9 31 -9 15 0 34 -6 42 -13 22 -19 122 -54 211 -73 41 -9 80 -20 85 -24 20 -14 296 -100 323 -100 15 0 32 -4 37 -8 14 -12 118 -49 190 -67 33 -9 79 -24 102 -35 24 -11 57 -20 73 -20 30 0 31 1 28 42 l-3 41 -65 18 c-36 10 -155 43 -265 73 -275 77 -902 246 -911 246 -4 0 3 -11 16 -25z"></path><path id="pMSbPajmE" d="M6415 5960 c11 -12 31 -27 45 -32 85 -34 254 -92 303 -104 32 -8 82 -25 110 -38 29 -13 79 -31 112 -41 33 -9 67 -21 75 -25 9 -4 35 -11 58 -15 l42 -7 0 41 c0 28 -5 43 -17 49 -28 15 -595 164 -713 187 l-35 7 20 -22z"></path><path id="pV4S9VYZx" d="M8055 5900 c-11 -4 -31 -20 -45 -35 -24 -26 -25 -30 -28 -205 -3 -148 0 -185 13 -213 32 -68 145 -98 212 -57 57 34 63 59 63 253 0 231 1 228 -64 250 -56 18 -118 21 -151 7z"></path><path id="pJ3FpGFJe" d="M2240 5873 c-8 -3 -26 -15 -38 -27 -46 -41 -52 -66 -52 -224 0 -138 2 -151 22 -182 62 -90 196 -93 254 -5 25 38 22 335 -4 378 -30 53 -121 82 -182 60z"></path><path id="pQybdJtSS" d="M5235 5363 c-52 -12 -433 -118 -535 -149 -169 -51 -320 -108 -316 -119 10 -29 175 10 661 156 127 38 237 69 245 69 8 0 42 -9 74 -20 33 -11 72 -20 87 -20 15 0 30 -4 33 -9 8 -12 96 -38 320 -96 99 -25 183 -48 186 -50 4 -2 45 -13 91 -24 46 -11 143 -36 214 -55 72 -20 142 -36 156 -36 28 0 122 -25 151 -41 10 -5 27 -9 37 -9 11 0 22 -4 25 -9 4 -5 25 -12 49 -16 23 -4 47 -10 52 -14 15 -11 89 -31 114 -31 12 0 29 -4 39 -9 30 -17 187 -61 216 -61 26 0 27 2 24 41 l-3 41 -570 144 c-613 154 -1251 310 -1300 317 -16 3 -39 3 -50 0z"></path><path id="p1FMDVNBsH" d="M3683 4998 c-74 -76 -96 -208 -50 -298 19 -40 26 -45 59 -48 l37 -3 -22 43 c-19 37 -22 60 -22 163 0 99 3 126 18 148 23 36 18 34 -20 -5z"></path><path id="p11gUMYKRl" d="M3499 4932 c-51 -74 -61 -146 -33 -241 19 -66 52 -101 94 -101 18 0 30 3 28 8 -54 106 -61 129 -66 218 -3 53 0 105 6 123 15 42 3 39 -29 -7z"></path><path id="pqYkJvFXi" d="M6595 4810 c10 -11 28 -20 39 -20 12 -1 39 -9 61 -20 22 -11 49 -19 61 -20 11 0 24 -4 30 -9 5 -5 43 -19 84 -31 41 -11 84 -25 95 -30 39 -18 129 -40 162 -40 33 0 34 1 31 37 -3 32 -7 38 -33 45 -177 45 -489 108 -534 108 -11 0 -10 -4 4 -20z"></path></g></g></svg>